<?xml version="1.0" encoding="UTF-8"?>
<svg version="1.1" xmlns="http://www.w3.org/2000/svg" width="434" height="475">
<path d="M0 0 C143.22 0 286.44 0 434 0 C434 156.75 434 313.5 434 475 C290.78 475 147.56 475 0 475 C0 318.25 0 161.5 0 0 Z " fill="#1A1A19" transform="translate(0,0)"/>
<path d="M0 0 C29.48929099 26.71541248 50.90675902 66.19596994 53.60400391 106.453125 C54.76561593 135.6317128 54.76561593 135.6317128 50.60400391 149.453125 C50.32121582 150.45230957 50.32121582 150.45230957 50.03271484 151.47167969 C42.70088476 176.86344804 28.65088699 200.60064358 16.55053711 223.97021484 C10.76592872 235.14722305 5.09650072 246.37875073 -0.52099609 257.640625 C-0.91082672 258.42214935 -1.30065735 259.20367371 -1.70230103 260.00888062 C-3.15329581 262.91884079 -4.60393661 265.82897459 -6.05232239 268.74023438 C-9.4717664 275.61298199 -12.90699557 282.47783722 -16.34084702 289.34339333 C-18.0053453 292.67149626 -19.6694077 295.9998171 -21.33349609 299.328125 C-22.00024184 300.66162225 -22.66698991 301.99511832 -23.33374023 303.32861328 C-23.67019562 304.00152405 -24.006651 304.67443481 -24.353302 305.36773682 C-33.03420003 322.72953288 -41.71509806 340.09132894 -50.39599609 357.453125 C-52.06211515 357.495846 -53.72982494 357.49376332 -55.39599609 357.453125 C-57.57739266 355.27172843 -56.8766282 350.29581261 -57.04443359 347.25854492 C-57.10149475 346.29256378 -57.15855591 345.32658264 -57.21734619 344.33132935 C-57.40624602 341.11565514 -57.58856207 337.89964072 -57.77099609 334.68359375 C-57.90124282 332.44929929 -58.03194557 330.21503137 -58.16308594 327.98078918 C-58.5086621 322.0754744 -58.84887601 316.16986322 -59.18774414 310.26416016 C-59.72878586 300.85016108 -60.27782572 291.43662562 -60.82696533 282.02309608 C-61.01747571 278.7441837 -61.20570066 275.46514644 -61.39355469 272.18608093 C-62.15298526 258.9138601 -62.15298526 258.9138601 -63.20231628 245.66197205 C-64.24340408 233.78874839 -64.04587195 223.73824502 -56.14599609 214.265625 C-50.45346202 208.24607302 -44.37675845 203.35206814 -37.43505859 198.85546875 C-31.03070806 194.45094415 -26.55120436 188.48421711 -23.70849609 181.328125 C-23.29212891 180.29429687 -22.87576172 179.26046875 -22.44677734 178.1953125 C-16.30173271 162.15880198 -21.05360759 140.23203161 -22.47478867 123.5364418 C-22.64804848 121.49140006 -22.81813477 119.44611778 -22.98721313 117.40072632 C-24.37054625 100.67499102 -25.83455293 83.95759201 -27.58349609 67.265625 C-27.70090149 66.13472946 -27.70090149 66.13472946 -27.82067871 64.98098755 C-28.21633016 51.05537005 -28.21633016 51.05537005 -32.83056641 38.69580078 C-34.84283894 37.09841039 -36.2911632 36.89357212 -38.83349609 36.640625 C-39.97625 36.50720703 -39.97625 36.50720703 -41.14208984 36.37109375 C-43.84570529 36.46949223 -45.1960299 36.86970984 -47.39599609 38.453125 C-49.84943355 43.04754976 -49.9095668 47.80662581 -50.21240234 52.8984375 C-50.27378891 53.82292694 -50.33517548 54.74741638 -50.39842224 55.69992065 C-50.59286518 58.65887811 -50.77571818 61.61842655 -50.95849609 64.578125 C-51.08471664 66.51437081 -51.21166314 68.45056944 -51.33935547 70.38671875 C-51.71075137 76.07441101 -52.0562003 81.76347024 -52.39599609 87.453125 C-52.4465918 88.27641296 -52.4971875 89.09970093 -52.54931641 89.94793701 C-53.11031369 99.14532752 -53.4705778 108.32517253 -53.60693359 117.5390625 C-53.6213298 118.46703644 -53.63572601 119.39501038 -53.65055847 120.35110474 C-53.70770234 124.1500486 -53.76305587 127.94881888 -53.79736328 131.74804688 C-53.82488824 134.57457586 -53.87063423 137.40033153 -53.91943359 140.2265625 C-53.92268646 141.08172455 -53.92593933 141.9368866 -53.92929077 142.81796265 C-54.05680691 148.96951178 -55.34145978 152.28444778 -59.64599609 156.828125 C-62.39599609 158.453125 -62.39599609 158.453125 -65.89599609 158.515625 C-69.97017977 157.27881924 -71.66821783 155.6622759 -74.39599609 152.453125 C-74.72599609 152.123125 -75.05599609 151.793125 -75.39599609 151.453125 C-75.65474411 149.03409718 -75.8524992 146.63521628 -76.01269531 144.20898438 C-76.09346817 143.06931213 -76.09346817 143.06931213 -76.1758728 141.90661621 C-76.29299484 140.24637172 -76.40800735 138.58597743 -76.5212059 136.92546082 C-76.70239662 134.27178646 -76.88958303 131.61859608 -77.07839966 128.9654541 C-77.61435615 121.41700469 -78.13845822 113.86773846 -78.66113281 106.31835938 C-80.40208135 80.4276023 -80.40208135 80.4276023 -82.96630859 54.609375 C-83.08054169 53.62207397 -83.19477478 52.63477295 -83.31246948 51.61755371 C-83.97737921 44.07218684 -83.97737921 44.07218684 -88.08349609 38.140625 C-92.44315111 36.84451135 -96.06554995 36.9035929 -100.27099609 38.640625 C-103.31981895 41.24109156 -103.24580092 43.88683953 -103.61668396 47.75453186 C-103.68424644 48.9415696 -103.68424644 48.9415696 -103.75317383 50.15258789 C-103.83362946 51.52472946 -103.83362946 51.52472946 -103.91571045 52.92459106 C-103.96979065 53.91498383 -104.02387085 54.90537659 -104.07958984 55.92578125 C-104.13906799 56.97724335 -104.19854614 58.02870544 -104.25982666 59.11203003 C-104.38752965 61.3891923 -104.51336385 63.66645997 -104.63754272 65.94381714 C-104.83503824 69.54373506 -105.04163475 73.14305736 -105.2487793 76.74243164 C-105.95328646 89.27830938 -106.49756009 101.79822225 -106.75537109 114.3515625 C-106.812925 116.73300295 -106.87094118 119.11443227 -106.92944336 121.49584961 C-107.03990304 126.02588989 -107.09983895 130.55304994 -107.1340332 135.08422852 C-107.18162907 137.15385471 -107.23108877 139.22343917 -107.28271484 141.29296875 C-107.27564514 142.22293671 -107.26857544 143.15290466 -107.2612915 144.11105347 C-107.39548088 148.01136772 -107.63576083 150.49623299 -110.10757446 153.60745239 C-113.32922911 156.56239196 -115.98767306 158.88141761 -120.45849609 159.265625 C-124.48823724 158.84934575 -126.94908085 157.0748313 -129.90484619 154.40707397 C-132.76359998 150.66106626 -132.46115555 146.4959212 -132.48193359 141.94140625 C-132.51368683 140.91250778 -132.54544006 139.88360931 -132.57815552 138.8235321 C-132.67417919 135.47086003 -132.72265451 132.1192929 -132.77099609 128.765625 C-132.82962242 126.44457782 -132.8914929 124.1236104 -132.95654297 121.80273438 C-133.11076434 116.06272307 -133.22912626 110.32268071 -133.33532715 104.581604 C-133.46472525 97.9090101 -133.65127698 91.23784703 -133.83798218 84.56665039 C-133.8954357 82.47354079 -133.94826555 80.38034916 -134.00073242 78.28710938 C-134.34369328 65.30554972 -135.26777659 52.38905665 -136.39599609 39.453125 C-141.57640621 37.61444423 -146.12150076 36.41341298 -151.53662109 38.1328125 C-153.61243214 39.32856691 -153.61243214 39.32856691 -154.15380859 41.7890625 C-156.14872342 58.30016603 -157.6638759 74.82284545 -158.68505859 91.421875 C-158.79415464 93.16142685 -158.90340102 94.90096928 -159.01278687 96.64050293 C-159.2388182 100.25025135 -159.46194521 103.86016486 -159.68310547 107.47021484 C-159.96315199 112.03508507 -160.25229633 116.59932806 -160.5438633 121.16347504 C-160.77128413 124.74458534 -160.99288645 128.32603959 -161.2129631 131.90760803 C-161.31705168 133.58818182 -161.42302365 135.26864033 -161.531147 136.94895935 C-162.11213721 146.01962806 -162.50236438 155.07176582 -162.56152344 164.16210938 C-162.57129023 164.97889412 -162.58105701 165.79567886 -162.59111977 166.63721466 C-162.58878295 178.8534803 -158.77280007 190.49315406 -150.43115234 199.59765625 C-145.49125938 204.26956225 -140.02835155 207.54819393 -134.13037109 210.87890625 C-126.14070952 215.47866856 -122.38691567 221.33361751 -119.08349609 229.828125 C-117.36312229 238.89918687 -118.55509522 248.4675689 -119.16552734 257.62109375 C-119.28639961 259.502556 -119.28639961 259.502556 -119.40971375 261.42202759 C-119.67218428 265.49515074 -119.93975932 269.56791207 -120.20849609 273.640625 C-120.53410688 278.59082185 -120.85872509 283.54108316 -121.18192673 288.49143791 C-121.27529313 289.92105216 -121.36884274 291.35065445 -121.46257401 292.78024483 C-122.10441748 302.58747182 -122.67689149 312.39592126 -123.18896484 322.2109375 C-123.36844939 325.51850093 -123.5492883 328.82598747 -123.7305603 332.13345337 C-123.84057882 334.21641792 -123.94382406 336.2997516 -124.04019165 338.38339233 C-124.17311704 341.24766684 -124.32886547 344.10983775 -124.48974609 346.97265625 C-124.52202805 347.81228912 -124.55431 348.651922 -124.58757019 349.51699829 C-124.72998047 351.81958008 -124.72998047 351.81958008 -125.39599609 355.453125 C-127.45263672 356.9831543 -127.45263672 356.9831543 -129.39599609 357.453125 C-134.09834388 350.33242692 -137.82709406 342.78555413 -141.58349609 335.140625 C-145.66197627 326.85974782 -149.80764416 318.62713669 -154.13427734 310.47265625 C-160.63088609 298.21374797 -166.76568117 285.77537502 -172.93701172 273.35058594 C-178.47328141 262.21121737 -184.05516178 251.10800625 -189.88427734 240.11865234 C-193.50808225 233.27710806 -196.98193765 226.36693983 -200.41723633 219.42922974 C-205.13688268 209.9003179 -209.8891943 200.39776704 -214.89599609 191.015625 C-222.08873536 177.46195985 -228.23473982 164.25945546 -232.39599609 149.453125 C-232.74662109 148.25042969 -233.09724609 147.04773438 -233.45849609 145.80859375 C-238.07716349 129.27761336 -237.89702679 111.16841065 -233.89208984 94.52392578 C-233.35351358 92.27579394 -232.85972464 90.01982923 -232.36474609 87.76171875 C-225.57147046 57.79138507 -212.54177224 30.85801916 -191.39599609 8.453125 C-190.71150391 7.70417969 -190.02701172 6.95523438 -189.32177734 6.18359375 C-143.63270782 -42.03906558 -49.02462903 -43.14040471 0 0 Z " fill="#FDCD00" transform="translate(305.39599609375,71.546875)"/>
<path d="M0 0 C11.55 0 23.1 0 35 0 C35 11.88 35 23.76 35 36 C34.67 36 34.34 36 34 36 C33.85304688 35.32195313 33.70609375 34.64390625 33.5546875 33.9453125 C30.80241745 22.52497358 25.72728092 13.82882436 16 7 C10.83243771 4.15039775 5.83148071 1.99638609 0 1 C0 0.67 0 0.34 0 0 Z " fill="#FFFFFF" transform="translate(399,0)"/>
<path d="M0 0 C11.55 0 23.1 0 35 0 C35 0.33 35 0.66 35 1 C34.154375 1.21914063 33.30875 1.43828125 32.4375 1.6640625 C20.82648728 4.90986833 13.09755079 10.14229057 6 20 C4.73689289 22.54489925 3.71409227 25.05396589 2.7890625 27.73828125 C2 30 2 30 0 34 C0 22.78 0 11.56 0 0 Z " fill="#FFFFFF" transform="translate(0,0)"/>
<path d="M0 0 C0.33 0 0.66 0 1 0 C1 11.55 1 23.1 1 35 C-10.22 35 -21.44 35 -33 35 C-33 34.67 -33 34.34 -33 34 C-32.38253906 33.85304688 -31.76507813 33.70609375 -31.12890625 33.5546875 C-20.17669303 30.65410135 -11.75996154 24.56261149 -5.203125 15.24609375 C-2.65597268 10.49085809 -1.39603213 5.18637635 0 0 Z " fill="#FFFFFF" transform="translate(433,440)"/>
<path d="M0 0 C0.33 0 0.66 0 1 0 C1.14695313 0.60585938 1.29390625 1.21171875 1.4453125 1.8359375 C4.21273138 12.17399655 8.95192354 20.93701543 18 27 C21.59148946 28.87295428 25.26091721 30.44979021 29 32 C30.32 32.66 31.64 33.32 33 34 C22.11 34 11.22 34 0 34 C0 22.78 0 11.56 0 0 Z " fill="#FFFFFF" transform="translate(0,441)"/>
</svg>
